<svg width="33" height="41" viewBox="0 0 33 41" fill="none" xmlns="http://www.w3.org/2000/svg">
<path d="M29.0882 38.6441V34.5764C29.0882 32.9581 28.5131 31.4066 27.4903 30.2623C26.5955 29.2612 25.4222 28.6433 24.1738 28.5044L23.6341 28.4747H9.09005C7.64355 28.4747 6.25671 29.118 5.23388 30.2623C4.21105 31.4066 3.63602 32.9581 3.63602 34.5764V38.6441C3.63602 39.7674 2.82207 40.678 1.81801 40.678C0.813951 40.678 0 39.7674 0 38.6441V34.5764C0 31.8792 0.958386 29.2934 2.6631 27.3862C4.36781 25.4791 6.67922 24.4069 9.09005 24.4069H23.6341C26.045 24.4069 28.3564 25.4791 30.0611 27.3862C31.7658 29.2934 32.7242 31.8792 32.7242 34.5764V38.6441C32.7242 39.7674 31.9102 40.678 30.9062 40.678C29.9021 40.678 29.0882 39.7674 29.0882 38.6441Z" fill="#2F4911"/>
<path d="M21.8175 10.1695C21.8175 6.79962 19.3757 4.0678 16.3635 4.0678C13.3513 4.0678 10.9095 6.79962 10.9095 10.1695C10.9095 13.5394 13.3513 16.2712 16.3635 16.2712C19.3757 16.2712 21.8175 13.5394 21.8175 10.1695ZM25.4535 10.1695C25.4535 15.7859 21.3838 20.339 16.3635 20.339C11.3432 20.339 7.27344 15.7859 7.27344 10.1695C7.27344 4.55304 11.3432 0 16.3635 0C21.3838 0 25.4535 4.55304 25.4535 10.1695Z" fill="#2F4911"/>
</svg>
