<svg width="33" height="38" viewBox="0 0 33 38" fill="none" xmlns="http://www.w3.org/2000/svg">
<path d="M23.6338 22C26.0446 22 28.3568 23.0543 30.0615 24.9297C31.7661 26.805 32.7246 29.3479 32.7246 32V36C32.7246 37.0706 31.9593 37.9414 30.998 37.9941L31 38H2L2.00195 37.9893C1.94156 37.9959 1.88035 38 1.81836 38C0.8143 38 0 37.1046 0 36V32C4.59493e-07 29.3478 0.958375 26.805 2.66309 24.9297C4.36775 23.0544 6.67909 22.0001 9.08984 22H23.6338ZM16 0C20.9706 0 25 4.02944 25 9C25 13.9706 20.9706 18 16 18C11.0294 18 7 13.9706 7 9C7 4.02944 11.0294 1.36255e-07 16 0Z" fill="#2F4911"/>
</svg>
