<svg width="41" height="41" viewBox="0 0 41 41" fill="none" xmlns="http://www.w3.org/2000/svg">
<path d="M15.1543 21.5352C17.3568 21.5352 19.1426 23.3209 19.1426 25.5234V36.6904C19.1423 38.8927 17.3567 40.6777 15.1543 40.6777H3.98828L3.7832 40.6729C1.67604 40.5662 0.000253668 38.824 0 36.6904V25.5234C0 23.3896 1.67588 21.6476 3.7832 21.541L3.98828 21.5352H15.1543ZM36.6895 21.5352C38.892 21.5352 40.6777 23.3209 40.6777 25.5234V36.6904C40.6775 38.8927 38.8918 40.6777 36.6895 40.6777H25.5234L25.3184 40.6729C23.2112 40.5662 21.5354 38.824 21.5352 36.6904V25.5234C21.5352 23.3896 23.211 21.6476 25.3184 21.541L25.5234 21.5352H36.6895ZM15.1543 0C17.3568 0 19.1426 1.78575 19.1426 3.98828V15.1543C19.1426 17.3568 17.3568 19.1426 15.1543 19.1426H3.98828L3.7832 19.1367C1.67588 19.0301 0 17.2881 0 15.1543V3.98828C0 1.85446 1.67588 0.112494 3.7832 0.00585938L3.98828 0H15.1543ZM36.6895 0C38.892 0 40.6777 1.78575 40.6777 3.98828V15.1543C40.6777 17.3568 38.892 19.1426 36.6895 19.1426H25.5234L25.3184 19.1367C23.211 19.0301 21.5352 17.2881 21.5352 15.1543V3.98828C21.5352 1.85446 23.211 0.112494 25.3184 0.00585938L25.5234 0H36.6895Z" fill="#2F4911"/>
</svg>
