<svg width="43" height="41" viewBox="0 0 43 41" fill="none" xmlns="http://www.w3.org/2000/svg">
<path d="M31.7168 37.0427C31.7168 35.035 33.3254 33.4074 35.3098 33.4074C37.2942 33.4074 38.9028 35.035 38.9028 37.0427C38.9028 39.0504 37.2942 40.678 35.3098 40.678C33.3254 40.678 31.7168 39.0504 31.7168 37.0427Z" fill="#2F4911"/>
<path d="M11.0078 37.0427C11.0078 35.0349 12.6165 33.4073 14.6008 33.4073C16.5852 33.4073 18.1939 35.0349 18.1939 37.0427C18.1939 39.0504 16.5852 40.678 14.6008 40.678C12.6165 40.678 11.0078 39.0504 11.0078 37.0427Z" fill="#2F4911"/>
<path d="M8.82812 0C9.66939 0.000228518 10.3934 0.600783 10.5586 1.43457L12.041 8.92285H40.6074C41.1334 8.92293 41.6324 9.15979 41.9678 9.56934C42.3029 9.97894 42.4402 10.5189 42.3418 11.041L39.5156 26.0127L39.5137 26.0264C39.2715 27.2586 38.6078 28.3655 37.6396 29.1533C36.6804 29.9337 35.4826 30.3497 34.252 30.334V30.3359H17.0898V30.334C15.8592 30.3498 14.6615 29.9337 13.7021 29.1533C12.7344 28.3659 12.0706 27.2598 11.8281 26.0283L8.86914 11.0869C8.86554 11.0701 8.86153 11.0531 8.8584 11.0361L7.38086 3.56934H1.76562C0.79055 3.56934 0 2.76972 0 1.78418C0.000159916 0.798777 0.790649 0 1.76562 0H8.82812Z" fill="#2F4911"/>
</svg>
