<svg width="44" height="44" viewBox="0 0 44 44" fill="none" xmlns="http://www.w3.org/2000/svg">
<path d="M12.8885 0.15403C10.5477 0.264397 8.94924 0.638029 7.55169 1.18693C6.10555 1.75068 4.87959 2.50692 3.65987 3.73104C2.44033 4.95515 1.68902 6.18183 1.12949 7.63052C0.587919 9.03082 0.220884 10.6308 0.117483 12.9728C0.014083 15.3149 -0.0088338 16.0679 0.00271626 22.0423C0.014083 28.0164 0.0404831 28.7653 0.153967 31.1123C0.265801 33.4526 0.637969 35.0507 1.18706 36.4486C1.75172 37.8949 2.50706 39.1203 3.73174 40.3404C4.95622 41.5605 6.182 42.3099 7.634 42.8704C9.03321 43.4112 10.6335 43.7799 12.9753 43.8824C15.317 43.9851 16.0707 44.0089 22.0433 43.9973C28.016 43.986 28.768 43.9594 31.1144 43.8481C33.461 43.7368 35.0505 43.3619 36.449 42.8154C37.8953 42.2496 39.1217 41.4954 40.3408 40.2705C41.56 39.0455 42.3108 37.8179 42.8699 36.3685C43.412 34.9693 43.7804 33.3692 43.8819 31.0291C43.9846 28.6808 44.0088 27.9311 43.9974 21.9578C43.9859 15.9843 43.9589 15.2354 43.8476 12.8892C43.7364 10.5431 43.3636 8.94997 42.8149 7.55114C42.2495 6.10483 41.4949 4.88035 40.271 3.65935C39.0469 2.43836 37.8182 1.68816 36.3694 1.13028C34.9691 0.588529 33.3699 0.21948 31.0282 0.11828C28.6865 0.0170807 27.9328 -0.00913586 21.9579 0.00259744C15.983 0.0139641 15.235 0.0396307 12.8885 0.15403ZM13.1456 39.9246C11.0006 39.8313 9.83585 39.4749 9.05961 39.1766C8.03184 38.7806 7.2996 38.3019 6.52612 37.5358C5.75245 36.7698 5.27743 36.035 4.87611 35.0094C4.57471 34.2332 4.2117 33.0698 4.11142 30.9248C4.00234 28.6065 3.97942 27.9104 3.96659 22.0368C3.95375 16.1634 3.9763 15.468 4.07787 13.1488C4.16954 11.0057 4.52814 9.83969 4.82587 9.06382C5.22188 8.03477 5.69891 7.30383 6.46671 6.53089C7.23452 5.75778 7.96712 5.28167 8.99361 4.88035C9.76911 4.57767 10.9324 4.21778 13.0765 4.11567C15.3966 4.00567 16.0918 3.98367 21.9645 3.97084C27.8373 3.958 28.5343 3.98 30.8553 4.0823C32.9985 4.17544 34.165 4.53055 34.94 4.8303C35.9681 5.2263 36.7 5.70186 37.4729 6.47113C38.2461 7.24003 38.7225 7.97006 39.1239 8.99874C39.4269 9.77185 39.787 10.9347 39.8882 13.0803C39.9985 15.4004 40.0237 16.0961 40.0341 21.9683C40.0448 27.8404 40.024 28.5378 39.9223 30.8562C39.8288 33.0012 39.4731 34.1663 39.1743 34.9434C38.7783 35.9708 38.3011 36.7034 37.5327 37.476C36.7645 38.2488 36.0328 38.7247 35.0058 39.126C34.2314 39.4283 33.0667 39.7891 30.9244 39.8912C28.6041 40.0003 27.9089 40.0232 22.034 40.0361C16.159 40.0489 15.4657 40.0251 13.1456 39.9246ZM31.0806 10.2417C31.0815 10.7639 31.2372 11.2741 31.5281 11.7078C31.8189 12.1415 32.2319 12.4792 32.7147 12.6782C33.1975 12.8771 33.7284 12.9285 34.2404 12.8257C34.7524 12.7228 35.2223 12.4705 35.5909 12.1006C35.9594 11.7306 36.21 11.2597 36.3109 10.7474C36.4118 10.235 36.3585 9.70427 36.1577 9.22222C35.9569 8.74018 35.6177 8.32851 35.1829 8.03928C34.7481 7.75005 34.2373 7.59626 33.7151 7.59734C33.0151 7.5988 32.3444 7.87819 31.8504 8.37408C31.3563 8.86996 31.0794 9.54175 31.0806 10.2417ZM10.7039 22.022C10.7162 28.2611 15.7834 33.3074 22.0212 33.2957C28.2593 33.2837 33.309 28.2171 33.2973 21.978C33.2854 15.7388 28.2171 10.6911 21.9783 10.7034C15.7394 10.7156 10.6922 15.7835 10.7039 22.022ZM14.6667 22.0141C14.6638 20.5637 15.0911 19.145 15.8945 17.9375C16.698 16.73 17.8414 15.7878 19.1803 15.2301C20.5192 14.6724 21.9934 14.5243 23.4165 14.8044C24.8395 15.0845 26.1476 15.7803 27.1752 16.8039C28.2028 17.8274 28.9039 19.1327 29.1897 20.5546C29.4755 21.9766 29.3332 23.4513 28.7808 24.7924C28.2284 26.1335 27.2908 27.2807 26.0864 28.0889C24.8821 28.8971 23.4651 29.33 22.0147 29.3329C21.0517 29.3349 20.0976 29.1472 19.2071 28.7805C18.3166 28.4138 17.507 27.8752 16.8247 27.1956C16.1423 26.5159 15.6006 25.7085 15.2303 24.8195C14.86 23.9304 14.6685 22.9771 14.6667 22.0141Z" fill="#707070"/>
</svg>
