<svg width="27" height="30" viewBox="0 0 27 30" fill="none" xmlns="http://www.w3.org/2000/svg">
<path d="M16.2002 0C17.2742 5.16932e-05 18.304 0.427108 19.0635 1.18652C19.8229 1.94595 20.2499 2.97582 20.25 4.0498V5.40039H25.6504C26.3957 5.4006 26.9999 6.00464 27 6.75C27 7.49545 26.3958 8.10038 25.6504 8.10059H24.2998V25.6504C24.2997 26.7243 23.8727 27.7542 23.1133 28.5137C22.3538 29.2731 21.324 29.7002 20.25 29.7002H6.75C5.67596 29.7002 4.64622 29.2731 3.88672 28.5137C3.12734 27.7542 2.7003 26.7243 2.7002 25.6504V8.10059H1.34961C0.604204 8.10038 0 7.49545 0 6.75C0.000112133 6.00464 0.604274 5.4006 1.34961 5.40039H6.75V4.0498C6.7501 2.97582 7.17709 1.94595 7.93652 1.18652C8.69599 0.427108 9.72579 5.17943e-05 10.7998 0H16.2002ZM5.40039 8.10059V25.6504C5.40049 26.0083 5.54287 26.3514 5.7959 26.6045C6.04905 26.8575 6.39205 27 6.75 27H20.25C20.608 27 20.9509 26.8575 21.2041 26.6045C21.4571 26.3514 21.5995 26.0083 21.5996 25.6504V8.10059H5.40039ZM10.7998 12.1504C11.5453 12.1504 12.1503 12.7545 12.1504 13.5V21.5996C12.1504 22.3452 11.5454 22.9502 10.7998 22.9502C10.0543 22.9501 9.4502 22.3451 9.4502 21.5996V13.5C9.4503 12.7546 10.0544 12.1505 10.7998 12.1504ZM16.2002 12.1504C16.9456 12.1505 17.5497 12.7546 17.5498 13.5V21.5996C17.5498 22.3451 16.9457 22.9501 16.2002 22.9502C15.4546 22.9502 14.8496 22.3452 14.8496 21.5996V13.5C14.8497 12.7545 15.4547 12.1504 16.2002 12.1504ZM10.7998 2.7002C10.4419 2.70025 10.0988 2.84264 9.8457 3.0957C9.59262 3.34879 9.4503 3.6919 9.4502 4.0498V5.40039H17.5498V4.0498C17.5497 3.6919 17.4074 3.34879 17.1543 3.0957C16.9012 2.84264 16.5581 2.70025 16.2002 2.7002H10.7998Z" fill="#333333"/>
</svg>
