<svg width="44" height="44" viewBox="0 0 44 44" fill="none" xmlns="http://www.w3.org/2000/svg">
<path d="M17.3965 0.00550023L18.733 0H25.267L26.6053 0.00550023L28.281 0.0238343L29.0748 0.0366682L29.8412 0.0568357L30.58 0.0825034L31.2913 0.111838L31.977 0.15034L32.637 0.196175L33.2695 0.251177L33.88 0.31168C37.07 0.671028 39.2572 1.44106 40.9072 3.09113C42.5572 4.7412 43.3272 6.92662 43.6865 10.1186L43.7488 10.7291L43.802 11.3635L43.8478 12.0235L43.8845 12.7074L43.9303 13.7854L43.9523 14.5371L43.9762 15.7178L43.9927 17.3954L44 19.1921L43.9982 25.2662L43.9927 26.6046L43.9743 28.2803L43.9615 29.0742L43.9413 29.8406L43.9157 30.5794L43.8863 31.2908L43.8478 31.9765L43.802 32.6365L43.747 33.2691L43.6865 33.8796C43.3272 37.0697 42.5572 39.257 40.9072 40.907C39.2572 42.5571 37.0718 43.3271 33.88 43.6865L33.2695 43.7488L32.6352 43.802L31.9752 43.8478L31.2913 43.8845L30.2133 43.9303L29.4617 43.9523L28.281 43.9762L26.6035 43.9927L24.8068 44L18.733 43.9982L17.3947 43.9927L15.719 43.9743L14.9252 43.9615L14.1588 43.9413L13.42 43.9157L12.7087 43.8863L12.023 43.8478L11.363 43.802L10.7305 43.747L10.12 43.6865C6.93 43.3271 4.74283 42.5571 3.09283 40.907C1.44283 39.257 0.672833 37.0715 0.3135 33.8796L0.251167 33.2691L0.198 32.6347L0.152167 31.9747L0.1155 31.2908L0.0696667 30.2128L0.0476667 29.4611L0.0238333 28.2803L0.00733333 26.6028L0 24.806L0.00183333 18.7319L0.00733333 17.3936L0.0256667 15.7178L0.0385 14.924L0.0586667 14.1576L0.0843333 13.4187L0.113667 12.7074L0.152167 12.0217L0.198 11.3616L0.253 10.7291L0.3135 10.1186C0.672833 6.92846 1.44283 4.7412 3.09283 3.09113C4.74283 1.44106 6.92817 0.671028 10.12 0.31168L10.7305 0.249344L11.3648 0.196175L12.0248 0.15034L12.7087 0.113671L13.7867 0.0678362L14.5383 0.0458352L15.719 0.0220009L17.3965 0.00550023ZM12.4483 13.3821H7.425C7.66333 24.8225 13.3833 31.6978 23.4117 31.6978H23.98V25.1525C27.665 25.5192 30.4517 28.2143 31.57 31.6978H36.7767C35.3467 26.4909 31.5883 23.6125 29.2417 22.5124C31.5883 21.1557 34.8883 17.8556 35.6767 13.3821H30.9467C29.92 17.0122 26.8767 20.3123 23.98 20.624V13.3821H19.25V26.0693C16.3167 25.3359 12.6133 21.7791 12.4483 13.3821Z" fill="#707070"/>
</svg>
