<svg width="33" height="41" viewBox="0 0 33 41" fill="none" xmlns="http://www.w3.org/2000/svg">
<path d="M23.6338 24.4072C26.0446 24.4072 28.3568 25.4786 30.0615 27.3857C31.7662 29.2928 32.7246 31.8791 32.7246 34.5762V38.6445C32.7244 39.7676 31.9102 40.6777 30.9062 40.6777C29.9023 40.6777 29.0881 39.7676 29.0879 38.6445V34.5762C29.0878 32.9581 28.5129 31.4069 27.4902 30.2627C26.5954 29.2616 25.4221 28.6437 24.1738 28.5049L23.6338 28.4746H9.08984C7.64342 28.4747 6.25618 29.1185 5.2334 30.2627C4.21088 31.4069 3.63578 32.9582 3.63574 34.5762V38.6445C3.63556 39.7675 2.82214 40.6775 1.81836 40.6777C0.814415 40.6777 0.000185635 39.7676 0 38.6445V34.5762C4.24714e-05 31.8791 0.958409 29.2928 2.66309 27.3857C4.36773 25.4788 6.67919 24.4073 9.08984 24.4072H23.6338ZM16.3633 0C21.3836 0 25.4531 4.55347 25.4531 10.1699C25.4529 15.7862 21.3834 20.3389 16.3633 20.3389C11.3432 20.3387 7.27365 15.7861 7.27344 10.1699C7.27344 4.55354 11.3431 0.000123395 16.3633 0Z" fill="#2F4911"/>
</svg>
