<svg width="43" height="41" viewBox="0 0 43 41" fill="none" xmlns="http://www.w3.org/2000/svg">
<path d="M31.7168 37.0427C31.7168 35.0349 33.3254 33.4073 35.3098 33.4073C37.2942 33.4073 38.9028 35.0349 38.9028 37.0427C38.9028 39.0504 37.2942 40.678 35.3098 40.678C33.3254 40.678 31.7168 39.0504 31.7168 37.0427Z" fill="#2F4911"/>
<path d="M11.0078 37.0427C11.0078 35.0349 12.6165 33.4073 14.6008 33.4073C16.5852 33.4073 18.1939 35.0349 18.1939 37.0427C18.1939 39.0504 16.5852 40.678 14.6008 40.678C12.6165 40.678 11.0078 39.0504 11.0078 37.0427Z" fill="#2F4911"/>
<path d="M8.82764 0C9.66912 0 10.3935 0.600259 10.5587 1.43421L12.0415 8.92239H40.6072C41.1332 8.92239 41.6321 9.15931 41.9675 9.56892C42.3029 9.97868 42.4402 10.5191 42.3417 11.0415L39.5158 26.0126L39.5141 26.0266C39.2719 27.2588 38.6081 28.3651 37.6399 29.1529C36.6805 29.9334 35.4827 30.3501 34.252 30.3344V30.3361H17.0898V30.3344C15.859 30.3502 14.6612 29.9335 13.7018 29.1529C12.734 28.3654 12.0702 27.2599 11.8277 26.0283L8.86902 11.0868C8.86542 11.07 8.86181 11.0532 8.85868 11.0362L7.38108 3.56896H1.76553C0.790454 3.56896 0 2.77002 0 1.78448C0 0.798938 0.790454 0 1.76553 0H8.82764ZM15.2898 25.3277L15.2915 25.3312C15.3723 25.7419 15.5929 26.1108 15.9156 26.3733C16.2384 26.636 16.6427 26.7752 17.057 26.7672H34.2847C34.699 26.7752 35.1033 26.636 35.4261 26.3733C35.7085 26.1435 35.9132 25.8323 36.014 25.4828L36.0502 25.3312L38.4727 12.4914H12.7484L15.2898 25.3277Z" fill="#2F4911"/>
</svg>
